# Blender 3.4.1
# www.blender.org
mtllib Base.mtl
o 平面.001
v -66.797028 -778.923157 367.916107
v -66.797028 -370.282013 776.557251
v -66.797028 -370.282013 -784.838379
v -66.797028 -778.923157 -376.197235
v -66.797028 782.472473 367.916107
v -66.797028 373.831299 776.557251
v -66.797028 782.472473 -376.197235
v -66.797028 373.831299 -784.838379
v 39.387192 -778.923157 367.916107
v 39.387192 -370.282013 776.557251
v 39.387192 -370.282013 -784.838379
v 39.387192 -778.923157 -376.197235
v 39.387192 782.472473 367.916107
v 39.387192 373.831299 776.557251
v 39.387192 782.472473 -376.197235
v 39.387192 373.831299 -784.838379
vn -1.0000 -0.0000 -0.0000
vn 1.0000 -0.0000 -0.0000
vn -0.0000 -1.0000 -0.0000
vn -0.0000 -0.0000 1.0000
vn -0.0000 0.7071 0.7071
vn -0.0000 0.7071 -0.7071
vn -0.0000 -0.7071 -0.7071
vn -0.0000 -0.7071 0.7071
vn -0.0000 1.0000 -0.0000
vn -0.0000 -0.0000 -1.0000
vt 0.261715 0.000000
vt 0.000000 0.261715
vt 1.000000 0.261715
vt 0.738285 0.000000
vt 0.261715 1.000000
vt 0.000000 0.738285
vt 0.738285 1.000000
vt 1.000000 0.738285
vt 0.261715 0.000000
vt 0.000000 0.261715
vt 1.000000 0.261715
vt 0.738285 0.000000
vt 0.261715 1.000000
vt 0.000000 0.738285
vt 0.738285 1.000000
vt 1.000000 0.738285
s 0
usemtl マテリアル.004
f 7/7/1 3/3/1 1/1/1
f 11/11/2 15/15/2 14/14/2
f 4/4/3 9/9/3 1/1/3
f 2/2/4 14/14/4 6/6/4
f 6/6/5 13/13/5 5/5/5
f 7/7/6 16/16/6 8/8/6
f 3/3/7 12/12/7 4/4/7
f 1/1/8 10/10/8 2/2/8
f 5/5/9 15/15/9 7/7/9
f 8/8/10 11/11/10 3/3/10
f 1/1/1 2/2/1 6/6/1
f 6/6/1 5/5/1 7/7/1
f 7/7/1 8/8/1 3/3/1
f 3/3/1 4/4/1 1/1/1
f 1/1/1 6/6/1 7/7/1
f 14/14/2 10/10/2 9/9/2
f 9/9/2 12/12/2 11/11/2
f 11/11/2 16/16/2 15/15/2
f 15/15/2 13/13/2 14/14/2
f 14/14/2 9/9/2 11/11/2
f 4/4/3 12/12/3 9/9/3
f 2/2/4 10/10/4 14/14/4
f 6/6/5 14/14/5 13/13/5
f 7/7/6 15/15/6 16/16/6
f 3/3/7 11/11/7 12/12/7
f 1/1/8 9/9/8 10/10/8
f 5/5/9 13/13/9 15/15/9
f 8/8/10 16/16/10 11/11/10
o 平面.002
v 19.685963 -640.714172 308.950684
v 19.685963 -306.361359 643.303528
v 19.685963 -306.361359 -634.240295
v 19.685963 -640.714172 -299.887543
v 19.685963 636.829651 308.950684
v 19.685963 302.476868 643.303528
v 19.685963 636.829651 -299.887543
v 19.685963 302.476868 -634.240295
v 147.139053 -640.714172 308.950684
v 147.139053 -306.361359 643.303528
v 147.139053 -306.361359 -634.240295
v 147.139053 -640.714172 -299.887543
v 147.139053 636.829651 308.950684
v 147.139053 302.476868 643.303528
v 147.139053 636.829651 -299.887543
v 147.139053 302.476868 -634.240295
vn -1.0000 -0.0000 -0.0000
vn 1.0000 -0.0000 -0.0000
vn -0.0000 -1.0000 -0.0000
vn -0.0000 -0.0000 1.0000
vn -0.0000 0.7071 0.7071
vn -0.0000 0.7071 -0.7071
vn -0.0000 -0.7071 -0.7071
vn -0.0000 -0.7071 0.7071
vn -0.0000 1.0000 -0.0000
vn -0.0000 -0.0000 -1.0000
vt 0.261715 0.000000
vt 0.000000 0.261715
vt 1.000000 0.261715
vt 0.738285 0.000000
vt 0.261715 1.000000
vt 0.000000 0.738285
vt 0.738285 1.000000
vt 1.000000 0.738285
vt 0.261715 0.000000
vt 0.000000 0.261715
vt 1.000000 0.261715
vt 0.738285 0.000000
vt 0.261715 1.000000
vt 0.000000 0.738285
vt 0.738285 1.000000
vt 1.000000 0.738285
s 0
usemtl マテリアル.004
f 23/23/11 19/19/11 17/17/11
f 27/27/12 31/31/12 30/30/12
f 20/20/13 25/25/13 17/17/13
f 18/18/14 30/30/14 22/22/14
f 22/22/15 29/29/15 21/21/15
f 23/23/16 32/32/16 24/24/16
f 19/19/17 28/28/17 20/20/17
f 17/17/18 26/26/18 18/18/18
f 21/21/19 31/31/19 23/23/19
f 24/24/20 27/27/20 19/19/20
f 17/17/11 18/18/11 22/22/11
f 22/22/11 21/21/11 23/23/11
f 23/23/11 24/24/11 19/19/11
f 19/19/11 20/20/11 17/17/11
f 17/17/11 22/22/11 23/23/11
f 30/30/12 26/26/12 25/25/12
f 25/25/12 28/28/12 27/27/12
f 27/27/12 32/32/12 31/31/12
f 31/31/12 29/29/12 30/30/12
f 30/30/12 25/25/12 27/27/12
f 20/20/13 28/28/13 25/25/13
f 18/18/14 26/26/14 30/30/14
f 22/22/15 30/30/15 29/29/15
f 23/23/16 31/31/16 32/32/16
f 19/19/17 27/27/17 28/28/17
f 17/17/18 25/25/18 26/26/18
f 21/21/19 29/29/19 31/31/19
f 24/24/20 32/32/20 27/27/20
o 平面.003
v 126.524063 -658.288391 317.326019
v 126.524063 -314.736694 660.877747
v 126.524063 -314.736694 -651.814514
v 126.524063 -658.288391 -308.262878
v 126.524063 654.403870 317.326019
v 126.524063 310.852203 660.877747
v 126.524063 654.403870 -308.262878
v 126.524063 310.852203 -651.814514
v 152.648376 -658.288391 317.326019
v 152.648376 -314.736694 660.877747
v 152.648376 -314.736694 -651.814514
v 152.648376 -658.288391 -308.262878
v 152.648376 654.403870 317.326019
v 152.648376 310.852203 660.877747
v 152.648376 654.403870 -308.262878
v 152.648376 310.852203 -651.814514
vn -1.0000 -0.0000 -0.0000
vn 1.0000 -0.0000 -0.0000
vn -0.0000 -1.0000 -0.0000
vn -0.0000 -0.0000 1.0000
vn -0.0000 0.7071 0.7071
vn -0.0000 0.7071 -0.7071
vn -0.0000 -0.7071 -0.7071
vn -0.0000 -0.7071 0.7071
vn -0.0000 1.0000 -0.0000
vn -0.0000 -0.0000 -1.0000
vt 0.261715 0.000000
vt 0.000000 0.261715
vt 1.000000 0.261715
vt 0.738285 0.000000
vt 0.261715 1.000000
vt 0.000000 0.738285
vt 0.738285 1.000000
vt 1.000000 0.738285
vt 0.261715 0.000000
vt 0.000000 0.261715
vt 1.000000 0.261715
vt 0.738285 0.000000
vt 0.261715 1.000000
vt 0.000000 0.738285
vt 0.738285 1.000000
vt 1.000000 0.738285
s 0
usemtl マテリアル.004
f 39/39/21 35/35/21 33/33/21
f 43/43/22 47/47/22 46/46/22
f 36/36/23 41/41/23 33/33/23
f 34/34/24 46/46/24 38/38/24
f 38/38/25 45/45/25 37/37/25
f 39/39/26 48/48/26 40/40/26
f 35/35/27 44/44/27 36/36/27
f 33/33/28 42/42/28 34/34/28
f 37/37/29 47/47/29 39/39/29
f 40/40/30 43/43/30 35/35/30
f 33/33/21 34/34/21 38/38/21
f 38/38/21 37/37/21 39/39/21
f 39/39/21 40/40/21 35/35/21
f 35/35/21 36/36/21 33/33/21
f 33/33/21 38/38/21 39/39/21
f 46/46/22 42/42/22 41/41/22
f 41/41/22 44/44/22 43/43/22
f 43/43/22 48/48/22 47/47/22
f 47/47/22 45/45/22 46/46/22
f 46/46/22 41/41/22 43/43/22
f 36/36/23 44/44/23 41/41/23
f 34/34/24 42/42/24 46/46/24
f 38/38/25 46/46/25 45/45/25
f 39/39/26 47/47/26 48/48/26
f 35/35/27 43/43/27 44/44/27
f 33/33/28 41/41/28 42/42/28
f 37/37/29 45/45/29 47/47/29
f 40/40/30 48/48/30 43/43/30
o 立方体
v 18.258741 -430.080200 595.353516
v 1163.283569 -361.972992 393.352509
v 18.258741 -343.906403 507.177582
v 1101.806519 -363.215881 394.624329
v 18.258741 -611.176453 418.369354
v 1163.283569 -410.792694 345.641296
v 18.258741 -525.002625 330.193420
v 1101.806519 -412.035645 346.913116
v 680.614075 -683.878418 772.901245
v 632.361511 -603.523560 690.679382
v 632.361511 -702.494080 593.956177
v 680.614075 -782.848999 676.177979
v 1063.114380 -496.439392 585.189697
v 946.122681 -457.104431 544.940857
v 946.122803 -560.156372 444.228882
v 1063.114380 -599.491333 484.477692
v 349.893036 -544.012451 670.859131
v 349.893036 -684.045776 534.005493
v 324.853516 -767.178284 619.069519
v 324.853516 -627.144958 755.923218
v 18.258741 -430.080200 -595.353516
v 1163.283569 -361.972992 -393.352509
v 18.258741 -343.906403 -507.177582
v 1101.806519 -363.215881 -394.624329
v 18.258741 -611.176453 -418.369354
v 1163.283569 -410.792694 -345.641296
v 18.258741 -525.002625 -330.193420
v 1101.806519 -412.035645 -346.913116
v 680.614075 -683.878418 -772.901245
v 632.361511 -603.523560 -690.679382
v 632.361511 -702.494080 -593.956177
v 680.614075 -782.848999 -676.177979
v 1063.114380 -496.439392 -585.189697
v 946.122681 -457.104431 -544.940857
v 946.122803 -560.156372 -444.228882
v 1063.114380 -599.491333 -484.477692
v 349.893036 -544.012451 -670.859131
v 349.893036 -684.045776 -534.005493
v 324.853516 -767.178284 -619.069519
v 324.853516 -627.144958 -755.923218
v 18.258741 430.080200 595.353516
v 1163.283569 361.972992 393.352509
v 18.258741 343.906403 507.177582
v 1101.806519 363.215881 394.624329
v 18.258741 611.176453 418.369354
v 1163.283569 410.792694 345.641296
v 18.258741 525.002625 330.193420
v 1101.806519 412.035645 346.913116
v 680.614075 683.878418 772.901245
v 632.361511 603.523560 690.679382
v 632.361511 702.494080 593.956177
v 680.614075 782.848999 676.177979
v 1063.114380 496.439392 585.189697
v 946.122681 457.104431 544.940857
v 946.122803 560.156372 444.228882
v 1063.114380 599.491333 484.477692
v 349.893036 544.012451 670.859131
v 349.893036 684.045776 534.005493
v 324.853516 767.178284 619.069519
v 324.853516 627.144958 755.923218
v 18.258741 430.080200 -595.353516
v 1163.283569 361.972992 -393.352509
v 18.258741 343.906403 -507.177582
v 1101.806519 363.215881 -394.624329
v 18.258741 611.176453 -418.369354
v 1163.283569 410.792694 -345.641296
v 18.258741 525.002625 -330.193420
v 1101.806519 412.035645 -346.913116
v 680.614075 683.878418 -772.901245
v 632.361511 603.523560 -690.679382
v 632.361511 702.494080 -593.956177
v 680.614075 782.848999 -676.177979
v 1063.114380 496.439392 -585.189697
v 946.122681 457.104431 -544.940857
v 946.122803 560.156372 -444.228882
v 1063.114380 599.491333 -484.477692
v 349.893036 544.012451 -670.859131
v 349.893036 684.045776 -534.005493
v 324.853516 767.178284 -619.069519
v 324.853516 627.144958 -755.923218
vn 0.0725 0.8105 0.5813
vn -0.7436 0.4674 -0.4782
vn 0.0725 -0.5998 -0.7969
vn 0.9176 -0.2779 0.2843
vn -1.0000 -0.0000 -0.0000
vn -0.0289 0.6986 -0.7149
vn -0.1441 -0.6916 0.7077
vn 0.0971 -0.7259 -0.6809
vn 0.1937 0.6857 -0.7016
vn 0.0971 0.6974 0.7101
vn 0.5699 -0.5743 0.5877
vn -0.0071 -0.7172 -0.6968
vn -0.5499 0.5838 -0.5973
vn -0.0071 0.7131 0.7011
vn 0.0862 0.7125 0.6963
vn 0.6124 0.5525 -0.5654
vn 0.0862 -0.7125 -0.6963
vn -0.6358 -0.5395 0.5520
vn -0.0047 0.8200 -0.5723
vn -0.7436 0.4674 0.4782
vn 0.0725 -0.5998 0.7969
vn 0.9176 -0.2779 -0.2843
vn -0.0289 0.6986 0.7149
vn -0.1441 -0.6916 -0.7077
vn 0.0971 -0.7259 0.6809
vn 0.1937 0.6857 0.7016
vn 0.0856 0.7372 -0.6702
vn 0.5699 -0.5743 -0.5877
vn -0.0071 -0.7172 0.6968
vn -0.5499 0.5838 0.5973
vn -0.0031 0.7107 -0.7035
vn 0.0795 0.7011 -0.7086
vn 0.6124 0.5525 0.5654
vn 0.0862 -0.7125 0.6963
vn -0.6358 -0.5395 -0.5520
vn -0.0047 -0.8200 0.5723
vn -0.7436 -0.4674 -0.4782
vn 0.0725 0.5998 -0.7969
vn 0.9176 0.2779 0.2843
vn -0.0289 -0.6986 -0.7149
vn -0.1441 0.6916 0.7077
vn 0.0971 0.7259 -0.6809
vn 0.1937 -0.6857 -0.7016
vn 0.0856 -0.7372 0.6702
vn 0.5699 0.5743 0.5877
vn -0.0071 0.7172 -0.6968
vn -0.5499 -0.5838 -0.5973
vn -0.0031 -0.7107 0.7035
vn 0.0795 -0.7011 0.7086
vn 0.6124 -0.5525 -0.5654
vn 0.0862 0.7125 -0.6963
vn -0.6358 0.5395 0.5520
vn 0.0725 -0.8105 -0.5813
vn -0.7436 -0.4674 0.4782
vn 0.0725 0.5998 0.7969
vn 0.9176 0.2779 -0.2843
vn -0.0289 -0.6986 0.7149
vn -0.1441 0.6916 -0.7077
vn 0.0971 0.7259 0.6809
vn 0.1937 -0.6857 0.7016
vn 0.0971 -0.6974 -0.7101
vn 0.5699 0.5743 -0.5877
vn -0.0071 0.7172 0.6968
vn -0.5499 -0.5838 0.5973
vn -0.0071 -0.7131 -0.7011
vn 0.6124 -0.5525 0.5654
vn -0.6358 0.5395 -0.5520
vn -0.0047 0.8200 0.5723
vn -0.0047 -0.5910 -0.8067
vn 0.0856 -0.6870 -0.7216
vn 0.0856 0.7372 0.6702
vn -0.0031 -0.7196 -0.6944
vn -0.0031 0.7107 0.7035
vn 0.0795 0.7011 0.7086
vn 0.0795 -0.7245 -0.6847
vn 0.0725 0.8105 -0.5813
vn -0.0047 -0.5910 0.8067
vn 0.0856 -0.6870 0.7216
vn 0.0971 0.6974 -0.7101
vn -0.0031 -0.7196 0.6944
vn -0.0071 0.7131 -0.7011
vn 0.0795 -0.7245 0.6847
vn 0.0725 -0.8105 0.5813
vn -0.0047 0.5910 -0.8067
vn 0.0856 0.6870 -0.7216
vn 0.0971 -0.6974 0.7101
vn -0.0031 0.7196 -0.6944
vn -0.0071 -0.7131 0.7011
vn 0.0795 0.7245 -0.6847
vn -0.0047 -0.8200 -0.5723
vn -0.0047 0.5910 0.8067
vn 0.0856 0.6870 0.7216
vn 0.0856 -0.7372 -0.6702
vn -0.0031 0.7196 0.6944
vn -0.0031 -0.7107 -0.7035
vn 0.0795 -0.7011 -0.7086
vn 0.0795 0.7245 0.6847
vt 0.125000 0.750000
vt 0.375000 0.000000
vt 0.375000 1.000000
vt 0.625000 0.000000
vt 0.625000 1.000000
vt 0.875000 0.750000
vt 0.125000 0.500000
vt 0.375000 0.250000
vt 0.625000 0.250000
vt 0.875000 0.500000
vt 0.375000 0.750000
vt 0.625000 0.750000
vt 0.375000 0.500000
vt 0.625000 0.500000
vt 0.500000 1.000000
vt 0.500000 0.000000
vt 0.500000 0.250000
vt 0.500000 0.500000
vt 0.500000 0.750000
vt 0.562500 1.000000
vt 0.562500 0.000000
vt 0.562500 0.250000
vt 0.562500 0.500000
vt 0.562500 0.750000
vt 0.437500 0.250000
vt 0.437500 0.500000
vt 0.437500 0.750000
vt 0.437500 0.000000
vt 0.437500 1.000000
vt 0.125000 0.750000
vt 0.375000 0.000000
vt 0.375000 1.000000
vt 0.625000 0.000000
vt 0.625000 1.000000
vt 0.875000 0.750000
vt 0.125000 0.500000
vt 0.375000 0.250000
vt 0.875000 0.500000
vt 0.625000 0.250000
vt 0.375000 0.750000
vt 0.625000 0.750000
vt 0.375000 0.500000
vt 0.625000 0.500000
vt 0.500000 1.000000
vt 0.500000 0.000000
vt 0.500000 0.250000
vt 0.500000 0.500000
vt 0.500000 0.750000
vt 0.562500 0.000000
vt 0.562500 1.000000
vt 0.562500 0.250000
vt 0.562500 0.500000
vt 0.562500 0.750000
vt 0.437500 0.250000
vt 0.437500 0.500000
vt 0.437500 0.750000
vt 0.437500 0.000000
vt 0.437500 1.000000
vt 0.125000 0.750000
vt 0.375000 0.000000
vt 0.375000 1.000000
vt 0.625000 0.000000
vt 0.625000 1.000000
vt 0.875000 0.750000
vt 0.125000 0.500000
vt 0.375000 0.250000
vt 0.875000 0.500000
vt 0.625000 0.250000
vt 0.375000 0.750000
vt 0.625000 0.750000
vt 0.375000 0.500000
vt 0.625000 0.500000
vt 0.500000 1.000000
vt 0.500000 0.000000
vt 0.500000 0.250000
vt 0.500000 0.500000
vt 0.500000 0.750000
vt 0.562500 0.000000
vt 0.562500 1.000000
vt 0.562500 0.250000
vt 0.562500 0.500000
vt 0.562500 0.750000
vt 0.437500 0.250000
vt 0.437500 0.500000
vt 0.437500 0.750000
vt 0.437500 0.000000
vt 0.437500 1.000000
vt 0.125000 0.750000
vt 0.375000 0.000000
vt 0.375000 1.000000
vt 0.625000 0.000000
vt 0.625000 1.000000
vt 0.875000 0.750000
vt 0.125000 0.500000
vt 0.375000 0.250000
vt 0.625000 0.250000
vt 0.875000 0.500000
vt 0.375000 0.750000
vt 0.625000 0.750000
vt 0.375000 0.500000
vt 0.625000 0.500000
vt 0.500000 1.000000
vt 0.500000 0.000000
vt 0.500000 0.250000
vt 0.500000 0.500000
vt 0.500000 0.750000
vt 0.562500 1.000000
vt 0.562500 0.000000
vt 0.562500 0.250000
vt 0.562500 0.500000
vt 0.562500 0.750000
vt 0.437500 0.250000
vt 0.437500 0.500000
vt 0.437500 0.750000
vt 0.437500 0.000000
vt 0.437500 1.000000
s 0
usemtl マテリアル.004
f 61/69/31 52/57/31 62/70/31
f 62/70/32 56/62/32 63/71/32
f 56/62/33 64/72/33 63/71/33
f 64/72/34 50/53/34 61/68/34
f 55/61/35 49/49/35 51/55/35
f 56/62/36 50/54/36 54/60/36
f 60/67/37 68/77/37 67/75/37
f 59/66/38 67/75/38 66/74/38
f 58/65/39 66/74/39 65/73/39
f 68/76/40 58/65/40 65/73/40
f 60/67/41 61/68/41 57/63/41
f 63/71/42 60/67/42 59/66/42
f 62/70/43 59/66/43 58/65/43
f 57/64/44 62/70/44 58/65/44
f 49/50/45 65/73/45 51/56/45
f 65/73/46 55/61/46 51/56/46
f 66/74/47 53/59/47 55/61/47
f 67/75/48 49/51/48 53/59/48
f 81/97/49 72/87/49 70/81/49
f 83/100/50 72/87/50 82/99/50
f 84/101/51 76/91/51 83/100/51
f 81/98/52 74/89/52 84/101/52
f 69/78/35 75/90/35 71/84/35
f 76/91/53 70/83/53 72/86/53
f 88/106/54 80/96/54 87/104/54
f 87/104/55 79/95/55 86/103/55
f 86/103/56 78/94/56 85/102/56
f 88/105/57 78/94/57 77/93/57
f 80/96/58 81/98/58 84/101/58
f 80/96/59 83/100/59 79/95/59
f 79/95/60 82/99/60 78/94/60
f 77/93/61 82/99/61 81/97/61
f 69/79/62 85/102/62 88/105/62
f 71/85/63 86/103/63 85/102/63
f 73/88/64 86/103/64 75/90/64
f 69/80/65 87/104/65 73/88/65
f 101/126/66 92/116/66 90/110/66
f 103/129/67 92/116/67 102/128/67
f 104/130/68 96/120/68 103/129/68
f 101/127/69 94/118/69 104/130/69
f 89/107/35 95/119/35 91/113/35
f 96/120/70 90/112/70 92/115/70
f 108/135/71 100/125/71 107/133/71
f 107/133/72 99/124/72 106/132/72
f 106/132/73 98/123/73 105/131/73
f 108/134/74 98/123/74 97/122/74
f 100/125/75 101/127/75 104/130/75
f 100/125/76 103/129/76 99/124/76
f 99/124/77 102/128/77 98/123/77
f 97/122/78 102/128/78 101/126/78
f 89/108/79 105/131/79 108/134/79
f 91/114/80 106/132/80 105/131/80
f 93/117/81 106/132/81 95/119/81
f 89/109/82 107/133/82 93/117/82
f 121/156/83 112/144/83 122/157/83
f 122/157/84 116/149/84 123/158/84
f 116/149/85 124/159/85 123/158/85
f 124/159/86 110/140/86 121/155/86
f 115/148/35 109/136/35 111/142/35
f 116/149/87 110/141/87 114/147/87
f 120/154/88 128/164/88 127/162/88
f 119/153/89 127/162/89 126/161/89
f 118/152/90 126/161/90 125/160/90
f 128/163/91 118/152/91 125/160/91
f 120/154/92 121/155/92 117/150/92
f 123/158/93 120/154/93 119/153/93
f 122/157/94 119/153/94 118/152/94
f 117/151/95 122/157/95 118/152/95
f 109/137/47 125/160/47 111/143/47
f 125/160/96 115/148/96 111/143/96
f 126/161/45 113/146/45 115/148/45
f 127/162/97 109/138/97 113/146/97
f 61/69/98 50/52/98 52/57/98
f 62/70/32 52/57/32 56/62/32
f 56/62/99 54/60/99 64/72/99
f 64/72/34 54/60/34 50/53/34
f 55/61/35 53/59/35 49/49/35
f 56/62/36 52/58/36 50/54/36
f 60/67/37 57/63/37 68/77/37
f 59/66/100 60/67/100 67/75/100
f 58/65/39 59/66/39 66/74/39
f 68/76/101 57/64/101 58/65/101
f 60/67/41 64/72/41 61/68/41
f 63/71/102 64/72/102 60/67/102
f 62/70/43 63/71/43 59/66/43
f 57/64/103 61/69/103 62/70/103
f 49/50/104 68/76/104 65/73/104
f 65/73/46 66/74/46 55/61/46
f 66/74/105 67/75/105 53/59/105
f 67/75/48 68/77/48 49/51/48
f 81/97/106 82/99/106 72/87/106
f 83/100/50 76/91/50 72/87/50
f 84/101/107 74/89/107 76/91/107
f 81/98/52 70/82/52 74/89/52
f 69/78/35 73/88/35 75/90/35
f 76/91/53 74/89/53 70/83/53
f 88/106/54 77/92/54 80/96/54
f 87/104/108 80/96/108 79/95/108
f 86/103/56 79/95/56 78/94/56
f 88/105/109 85/102/109 78/94/109
f 80/96/58 77/92/58 81/98/58
f 80/96/110 84/101/110 83/100/110
f 79/95/60 83/100/60 82/99/60
f 77/93/111 78/94/111 82/99/111
f 69/79/81 71/85/81 85/102/81
f 71/85/63 75/90/63 86/103/63
f 73/88/112 87/104/112 86/103/112
f 69/80/65 88/106/65 87/104/65
f 101/126/113 102/128/113 92/116/113
f 103/129/67 96/120/67 92/116/67
f 104/130/114 94/118/114 96/120/114
f 101/127/69 90/111/69 94/118/69
f 89/107/35 93/117/35 95/119/35
f 96/120/70 94/118/70 90/112/70
f 108/135/71 97/121/71 100/125/71
f 107/133/115 100/125/115 99/124/115
f 106/132/73 99/124/73 98/123/73
f 108/134/116 105/131/116 98/123/116
f 100/125/75 97/121/75 101/127/75
f 100/125/117 104/130/117 103/129/117
f 99/124/77 103/129/77 102/128/77
f 97/122/118 98/123/118 102/128/118
f 89/108/64 91/114/64 105/131/64
f 91/114/80 95/119/80 106/132/80
f 93/117/119 107/133/119 106/132/119
f 89/109/82 108/135/82 107/133/82
f 121/156/120 110/139/120 112/144/120
f 122/157/84 112/144/84 116/149/84
f 116/149/121 114/147/121 124/159/121
f 124/159/86 114/147/86 110/140/86
f 115/148/35 113/146/35 109/136/35
f 116/149/87 112/145/87 110/141/87
f 120/154/88 117/150/88 128/164/88
f 119/153/122 120/154/122 127/162/122
f 118/152/90 119/153/90 126/161/90
f 128/163/123 117/151/123 118/152/123
f 120/154/92 124/159/92 121/155/92
f 123/158/124 124/159/124 120/154/124
f 122/157/94 123/158/94 119/153/94
f 117/151/125 121/156/125 122/157/125
f 109/137/126 128/163/126 125/160/126
f 125/160/96 126/161/96 115/148/96
f 126/161/127 127/162/127 113/146/127
f 127/162/97 128/164/97 109/138/97
o 立方体.001
v 1265.010010 -23.650284 0.319385
v 1425.632202 -184.272476 0.319385
v 1425.632202 -23.650284 160.941589
v 1426.271118 -184.272476 0.319385
v 1586.893188 -23.650284 0.319385
v 1426.271118 -23.650284 160.941589
v 1265.010010 -23.011513 0.319385
v 1425.632202 -23.011513 160.941589
v 1425.632202 137.610687 0.319385
v 1586.893188 -23.011513 0.319385
v 1426.271118 137.610687 0.319385
v 1426.271118 -23.011513 160.941589
v 1265.010010 -23.650284 -0.319385
v 1425.632202 -23.650284 -160.941589
v 1425.632202 -184.272476 -0.319385
v 1586.893188 -23.650284 -0.319385
v 1426.271118 -184.272476 -0.319385
v 1426.271118 -23.650284 -160.941589
v 1265.010010 -23.011513 -0.319385
v 1425.632202 137.610687 -0.319385
v 1425.632202 -23.011513 -160.941589
v 1586.893188 -23.011513 -0.319385
v 1426.271118 -23.011513 -160.941589
v 1426.271118 137.610687 -0.319385
vn -0.0000 -1.0000 -0.0000
vn -0.0000 -0.0000 -1.0000
vn 1.0000 -0.0000 -0.0000
vn -0.0000 -0.0000 1.0000
vn -0.0000 1.0000 -0.0000
vn -0.5774 -0.5774 0.5774
vn 0.5774 -0.5774 0.5774
vn -0.5774 0.5774 0.5774
vn 0.5774 0.5774 0.5774
vn -0.5774 -0.5774 -0.5774
vn 0.5774 -0.5774 -0.5774
vn -0.5774 0.5774 -0.5774
vn 0.5774 0.5774 -0.5774
vn -0.7071 -0.0000 0.7071
vn -0.0000 -0.7071 0.7071
vn 0.7071 -0.0000 0.7071
vn -0.0000 0.7071 0.7071
vn -0.7071 0.7071 -0.0000
vn 0.7071 0.7071 -0.0000
vn -0.0000 0.7071 -0.7071
vn -0.7071 -0.0000 -0.7071
vn 0.7071 -0.0000 -0.7071
vn -0.0000 -0.7071 -0.7071
vn -0.7071 -0.7071 -0.0000
vn 0.7071 -0.7071 -0.0000
vn -1.0000 -0.0000 -0.0000
vt 0.249752 0.625248
vt 0.499752 0.000000
vt 0.499752 0.875248
vt 0.249752 0.750000
vt 0.125000 0.625248
vt 0.499752 0.124752
vt 0.500248 0.000000
vt 0.500248 0.875248
vt 0.625000 0.124752
vt 0.750248 0.625248
vt 0.625000 0.875248
vt 0.500248 0.124752
vt 0.249752 0.624752
vt 0.125000 0.624752
vt 0.499752 0.125248
vt 0.499752 0.374752
vt 0.249752 0.500000
vt 0.625000 0.374752
vt 0.750248 0.624752
vt 0.625000 0.125248
vt 0.500248 0.250000
vt 0.500248 0.374752
vt 0.500248 0.125248
vt 0.250248 0.625248
vt 0.375000 0.625248
vt 0.499752 0.625248
vt 0.499752 0.874752
vt 0.250248 0.750000
vt 0.625000 0.874752
vt 0.749752 0.625248
vt 0.500248 0.874752
vt 0.500248 0.750000
vt 0.500248 0.625248
vt 0.250248 0.624752
vt 0.250248 0.500000
vt 0.499752 0.375248
vt 0.375000 0.624752
vt 0.499752 0.624752
vt 0.749752 0.624752
vt 0.625000 0.375248
vt 0.500248 0.500000
vt 0.500248 0.624752
vt 0.500248 0.375248
s 0
usemtl マテリアル.003
f 145/195/128 130/167/128 143/191/128
f 151/206/129 142/190/129 149/202/129
f 138/183/130 144/194/130 150/203/130
f 134/176/131 136/179/131 131/170/131
f 139/186/132 148/200/132 137/180/132
f 129/165/133 130/168/133 131/169/133
f 132/171/134 133/173/134 134/176/134
f 135/177/135 136/178/135 137/181/135
f 138/184/136 139/185/136 140/187/136
f 141/188/137 142/189/137 143/192/137
f 144/193/138 145/195/138 146/196/138
f 147/198/139 148/199/139 149/201/139
f 150/204/140 151/205/140 152/207/140
f 129/165/141 136/178/141 135/177/141
f 132/171/142 131/170/142 130/166/142
f 138/184/143 134/176/143 133/173/143
f 137/180/144 140/187/144 139/186/144
f 135/177/145 148/199/145 147/198/145
f 150/204/146 139/186/146 138/182/146
f 149/202/147 152/207/147 151/206/147
f 147/198/148 142/190/148 141/188/148
f 144/194/149 151/206/149 150/203/149
f 143/191/150 146/197/150 145/195/150
f 141/188/151 130/168/151 129/165/151
f 133/175/152 145/195/152 144/193/152
f 147/198/153 129/165/153 135/177/153
f 145/195/128 132/172/128 130/167/128
f 151/206/129 146/197/129 142/190/129
f 138/183/130 133/174/130 144/194/130
f 134/176/131 140/187/131 136/179/131
f 139/186/132 152/207/132 148/200/132
f 129/165/141 131/169/141 136/178/141
f 132/171/142 134/176/142 131/170/142
f 138/184/143 140/187/143 134/176/143
f 137/180/144 136/179/144 140/187/144
f 135/177/145 137/181/145 148/199/145
f 150/204/146 152/207/146 139/186/146
f 149/202/147 148/200/147 152/207/147
f 147/198/148 149/202/148 142/190/148
f 144/194/149 146/197/149 151/206/149
f 143/191/150 142/190/150 146/197/150
f 141/188/151 143/192/151 130/168/151
f 133/175/152 132/172/152 145/195/152
f 147/198/153 141/188/153 129/165/153
