# Blender 3.4.0
# www.blender.org
mtllib floor.mtl
o 平面
v -1.000000 0.000000 1.000000
v 1.000000 0.000000 1.000000
v -1.000000 0.000000 -1.000000
v 1.000000 0.000000 -1.000000
v -1.000000 0.127484 -1.000000
v -1.000000 0.127484 1.000000
v 1.000000 0.127484 1.000000
v 1.000000 0.127484 -1.000000
vn -0.0000 -1.0000 -0.0000
vn -0.0000 1.0000 -0.0000
vn -0.0000 -0.0000 -1.0000
vn -0.0000 -0.0000 1.0000
vn 1.0000 -0.0000 -0.0000
vn -1.0000 -0.0000 -0.0000
vt 0.075619 0.992821
vt -0.267376 0.233238
vt 0.501565 0.104314
vt 0.923544 0.992821
vt 1.276412 0.233238
vt 0.562148 0.100038
vt 0.075619 0.151741
vt 1.214048 0.262357
vt 0.501565 1.008130
vt 0.923544 0.151741
vt -0.077461 0.262357
vt 0.562148 1.001371
vt 0.051567 1.001075
vt 1.214048 0.304050
vt 0.530306 1.008130
vt 0.051567 0.101945
vt -0.267376 0.282387
vt 0.530306 0.104314
vt 0.950697 0.101945
vt 1.276412 0.282387
vt 0.533464 0.100038
vt 0.950696 1.001075
vt -0.077461 0.304050
vt 0.533464 1.001371
s 0
usemtl マテリアル.001
f 1/1/1 3/7/1 4/10/1 2/4/1
f 6/16/2 7/19/2 8/22/2 5/13/2
f 4/11/3 3/8/3 5/14/3 8/23/3
f 1/2/4 2/5/4 7/20/4 6/17/4
f 2/6/5 4/12/5 8/24/5 7/21/5
f 3/9/6 1/3/6 6/18/6 5/15/6
