# Blender 3.4.0
# www.blender.org
mtllib Wall.mtl
o Cube
v -0.565460 0.000000 5.000000
v -0.565460 8.000000 5.000000
v -0.565460 0.000000 -5.000000
v -0.565460 8.000000 -5.000000
v 0.565460 0.000000 5.000000
v 0.565460 8.000000 5.000000
v 0.565460 0.000000 -5.000000
v 0.565460 8.000000 -5.000000
vn -1.0000 -0.0000 -0.0000
vn -0.0000 -0.0000 -1.0000
vn 1.0000 -0.0000 -0.0000
vn -0.0000 -0.0000 1.0000
vn -0.0000 -1.0000 -0.0000
vn -0.0000 1.0000 -0.0000
vt 2.987785 0.008939
vt -0.190022 0.004704
vt -0.007247 -0.161189
vt 2.986726 1.007636
vt -0.191081 1.003401
vt -0.010423 1.156647
vt 1.196716 0.007880
vt 0.991450 -0.160131
vt 1.989088 0.007880
vt 1.988029 1.006577
vt 1.195657 1.006577
vt 0.988274 1.157705
vt -0.008305 0.005763
vt -0.009364 1.004460
vt 0.990391 0.006822
vt 0.989333 1.005518
s 0
usemtl Material.001
f 2/4/1 3/9/1 1/1/1
f 4/11/2 7/15/2 3/7/2
f 8/16/3 5/13/3 7/15/3
f 6/14/4 1/2/4 5/13/4
f 7/15/5 1/3/5 3/8/5
f 4/12/6 6/14/6 8/16/6
f 2/4/1 4/10/1 3/9/1
f 4/11/2 8/16/2 7/15/2
f 8/16/3 6/14/3 5/13/3
f 6/14/4 2/5/4 1/2/4
f 7/15/5 5/13/5 1/3/5
f 4/12/6 2/6/6 6/14/6
