# Blender 3.4.0
# www.blender.org
mtllib wall.mtl
o 平面
v -0.133985 2.000000 1.000000
v -0.133985 0.000000 1.000000
v -0.133985 2.000000 -1.000000
v -0.133985 0.000000 -1.000000
v 0.116281 2.000000 1.000000
v 0.116281 0.000000 1.000000
v 0.116281 2.000000 -1.000000
v 0.116281 0.000000 -1.000000
vn -1.0000 -0.0000 -0.0000
vn 1.0000 -0.0000 -0.0000
vn -0.0000 -0.0000 -1.0000
vn -0.0000 -0.0000 1.0000
vn -0.0000 -1.0000 -0.0000
vn -0.0000 1.0000 -0.0000
vt 0.000546 1.002555
vt 0.000035 0.999965
vt 0.004343 0.562562
vt 1.001267 0.123320
vt 0.000546 -0.003392
vt 0.000035 0.000035
vt 1.004272 0.562562
vt 1.006492 1.002555
vt 0.125159 0.999964
vt 0.125159 0.000035
vt 1.006492 -0.003391
vt 0.001338 0.123319
vt 0.002975 1.000839
vt 0.125159 0.999965
vt 0.004343 0.437438
vt 0.002975 0.004525
vt 0.125159 0.000035
vt 1.001267 -0.001804
vt 0.999288 1.000839
vt 0.000035 0.999965
vt 1.004272 0.437438
vt 0.999289 0.004526
vt 0.000035 0.000035
vt 0.001338 -0.001805
s 0
usemtl マテリアル.001
f 3/8/1 2/5/1 1/1/1
f 6/16/2 7/19/2 5/13/2
f 3/9/3 8/23/3 4/10/3
f 2/6/4 5/14/4 1/2/4
f 4/12/5 6/18/5 2/4/5
f 1/3/6 7/21/6 3/7/6
f 3/8/1 4/11/1 2/5/1
f 6/16/2 8/22/2 7/19/2
f 3/9/3 7/20/3 8/23/3
f 2/6/4 6/17/4 5/14/4
f 4/12/5 8/24/5 6/18/5
f 1/3/6 5/15/6 7/21/6
